# xmcd CD database file
#
# Track frame offsets:
#	150
#	14412
#	39457
#	54237
#	77498
#	92523
#	108845
#	122565
#	139777
#	152096
#	179999
#	201506
#	217801
#
# Disc length: 3258 seconds
#
# Revision: 4
# Processed by: cddbd v1.5.2PL0 Copyright (c) Steve Scherf et al.
# Submitted via: CDex 1.70beta2
#
DISCID=a90cb80d
DTITLE=George McAnthony - Western Roadhouse
DYEAR=1998
DGENRE=Country
TTITLE0=Thank You Folks
TTITLE1=Medley (Everybody's Talking, San Francisco, Blowin' In The Wind)
TTITLE2=He's Tasting Freedom
TTITLE3=Medley (What Shall We Do With The Drunken Sailor, Ghost Riders In The Sky, Rawhide)
TTITLE4=Western Roadhouse
TTITLE5=Father Abd Son
TTITLE6=Weekend Cowboy
TTITLE7=Another Broken Heart
TTITLE8=Trapper Jacket Joe
TTITLE9=Medley (Amazing Grace, Red River Valley, El Condor Pasa
TTITLE10=The Star From Denver
TTITLE11=Campfire Serenade
TTITLE12=Medley (Thank God I'm A Country Boy, Mountain Music, She'll Be Coming 'Round The Mountain)
EXTD=YEAR: 1998
EXTT0=
EXTT1=
EXTT2=
EXTT3=
EXTT4=
EXTT5=
EXTT6=
EXTT7=
EXTT8=
EXTT9=
EXTT10=
EXTT11=
EXTT12=
PLAYORDER=
